<svg width="29" height="29" viewBox="0 0 29 29" fill="none" xmlns="http://www.w3.org/2000/svg">
<path d="M24.4688 0H4.53125C2.02871 0 0 2.02871 0 4.53125V24.4688C0 26.9713 2.02871 29 4.53125 29H24.4688C26.9713 29 29 26.9713 29 24.4688V4.53125C29 2.02871 26.9713 0 24.4688 0Z" fill="#7562E0"/>
<path fill-rule="evenodd" clip-rule="evenodd" d="M14.4778 7.42407C10.487 7.42407 7.25 10.6611 7.25 14.6519C7.25 17.8446 9.3341 20.5495 12.172 21.525C12.5268 21.5693 12.6598 21.3476 12.6598 21.1703C12.6598 20.9929 12.6598 20.5495 12.6598 19.9287C10.6644 20.3721 10.2209 18.9531 10.2209 18.9531C9.91055 18.1106 9.42278 17.8889 9.42278 17.8889C8.75765 17.4455 9.46713 17.4455 9.46713 17.4455C10.1766 17.4898 10.5757 18.1993 10.5757 18.1993C11.2408 19.3079 12.2607 18.9975 12.6598 18.8201C12.7041 18.3323 12.9258 18.0219 13.1032 17.8446C11.5069 17.6672 9.82187 17.0464 9.82187 14.2528C9.82187 13.4547 10.0879 12.8339 10.5757 12.3017C10.5313 12.1687 10.2653 11.4149 10.6644 10.4394C10.6644 10.4394 11.2852 10.262 12.6598 11.1932C13.2362 11.0158 13.857 10.9715 14.4778 10.9715C15.0986 10.9715 15.7194 11.0602 16.2959 11.1932C17.6705 10.262 18.2913 10.4394 18.2913 10.4394C18.6904 11.4149 18.4243 12.1687 18.38 12.3461C18.8234 12.8339 19.1338 13.499 19.1338 14.2972C19.1338 17.0907 17.4488 17.6672 15.8524 17.8446C16.1185 18.0663 16.3402 18.5097 16.3402 19.1748C16.3402 20.1504 16.3402 20.9042 16.3402 21.1703C16.3402 21.3476 16.4732 21.5693 16.828 21.525C19.7102 20.5495 21.75 17.8446 21.75 14.6519C21.7057 10.6611 18.4687 7.42407 14.4778 7.42407Z" fill="#1A1A29"/>
</svg>
