<svg width="29" height="29" viewBox="0 0 29 29" fill="none" xmlns="http://www.w3.org/2000/svg">
<path d="M24.4688 0H4.53125C2.02871 0 0 2.02871 0 4.53125V24.4688C0 26.9713 2.02871 29 4.53125 29H24.4688C26.9713 29 29 26.9713 29 24.4688V4.53125C29 2.02871 26.9713 0 24.4688 0Z" fill="#7562E0"/>
<path d="M10.5125 21.75H7.43125V12.0531H10.5125V21.75ZM8.97188 10.6938C7.975 10.6938 7.25 9.96875 7.25 8.97187C7.25 7.975 8.06563 7.25 8.97188 7.25C9.96875 7.25 10.6938 7.975 10.6938 8.97187C10.6938 9.96875 9.96875 10.6938 8.97188 10.6938ZM21.75 21.75H18.6688V16.4938C18.6688 14.9531 18.0344 14.5 17.1281 14.5C16.2219 14.5 15.3156 15.225 15.3156 16.5844V21.75H12.2344V12.0531H15.1344V13.4125C15.4062 12.7781 16.4937 11.7812 18.0344 11.7812C19.7562 11.7812 21.5688 12.7781 21.5688 15.7687V21.75H21.75Z" fill="#1A1A29"/>
</svg>
