<svg width="35" height="35" viewBox="0 0 35 35" fill="none" xmlns="http://www.w3.org/2000/svg">
<path d="M24.7917 5.10425H10.2083C5.83332 5.10425 2.91666 7.29175 2.91666 12.3959V22.6042C2.91666 27.7084 5.83332 29.8959 10.2083 29.8959H24.7917C29.1667 29.8959 32.0833 27.7084 32.0833 22.6042V12.3959C32.0833 7.29175 29.1667 5.10425 24.7917 5.10425ZM25.4771 13.9855L20.9125 17.6313C19.95 18.4043 18.725 18.7834 17.5 18.7834C16.275 18.7834 15.0354 18.4043 14.0875 17.6313L9.52291 13.9855C9.05624 13.6063 8.98332 12.9063 9.34791 12.4397C9.72707 11.973 10.4125 11.8855 10.8792 12.2647L15.4437 15.9105C16.5521 16.8001 18.4333 16.8001 19.5417 15.9105L24.1062 12.2647C24.5729 11.8855 25.2729 11.9584 25.6375 12.4397C26.0167 12.9063 25.9437 13.6063 25.4771 13.9855Z" fill="#7562E0"/>
</svg>
