<svg width="50" height="50" viewBox="0 0 50 50" fill="none" xmlns="http://www.w3.org/2000/svg">
<path fill-rule="evenodd" clip-rule="evenodd" d="M12.6232 5.38593C9.784 7.52845 8 10.7229 8 15.1579C8 20.0416 8.80084 21.3913 9.47762 22.1379C9.78709 22.4792 10.0722 22.7117 10.4731 23.0387L10.4731 23.0387L10.4731 23.0387C10.6994 23.2233 10.9626 23.4379 11.2879 23.7193C12.109 24.4293 13.0116 25.3346 13.8739 26.7477C15.6816 29.7099 16.524 31.9175 16.9151 33.3684H32.0849C32.476 31.9175 33.3184 29.7099 35.1261 26.7477C35.9884 25.3346 36.891 24.4293 37.7121 23.7193C38.0374 23.4379 38.3006 23.2233 38.5269 23.0387C38.9278 22.7117 39.2129 22.4792 39.5224 22.1379C40.1992 21.3913 41 20.0416 41 15.1579C41 10.7229 39.216 7.52845 36.3768 5.38593C33.4707 3.19295 29.3097 2 24.5 2C19.6903 2 15.5293 3.19295 12.6232 5.38593ZM6 15.1579C6 5.05263 14.2827 0 24.5 0C34.7173 0 43 5.05263 43 15.1579C43 21.9627 41.5186 23.176 39.6655 24.6936C38.7667 25.4297 37.7804 26.2374 36.8333 27.7895C34.8622 31.0195 34.1512 33.2171 33.8947 34.3822C33.776 34.9216 33.3023 35.3684 32.75 35.3684H16.25C15.6977 35.3684 15.224 34.9216 15.1053 34.3822C14.8488 33.2171 14.1378 31.0195 12.1667 27.7895C11.2196 26.2374 10.2333 25.4297 9.33451 24.6936C7.48136 23.176 6 21.9627 6 15.1579ZM15.25 38.3948C15.25 38.1186 15.4739 37.8948 15.75 37.8948H33.25C33.5261 37.8948 33.75 38.1186 33.75 38.3948V45.1854C33.75 45.3638 33.6555 45.5283 33.4993 45.6146C32.653 46.0824 29.8312 47.5777 27.6273 47.9919C27.5977 47.9975 27.5676 48 27.5376 48H21.4618C21.4318 48 21.4023 47.9975 21.3727 47.9919C19.1687 47.5777 16.347 46.0824 15.5007 45.6146C15.3445 45.5283 15.25 45.3638 15.25 45.1854V38.3948ZM19.3333 13.8947C19.3333 13.5898 19.565 12.8804 20.2051 12.2249C20.8074 11.608 21.7129 11.1052 22.9583 11.1052C23.5106 11.1052 23.9583 10.6575 23.9583 10.1052C23.9583 9.55294 23.5106 9.10522 22.9583 9.10522C21.1204 9.10522 19.7134 9.86559 18.7741 10.8277C17.8725 11.751 17.3333 12.9364 17.3333 13.8947C17.3333 14.447 17.781 14.8947 18.3333 14.8947C18.8856 14.8947 19.3333 14.447 19.3333 13.8947Z" fill="white"/>
</svg>
