<svg width="29" height="29" viewBox="0 0 29 29" fill="none" xmlns="http://www.w3.org/2000/svg">
<path d="M24.4688 0H4.53125C2.02871 0 0 2.02871 0 4.53125V24.4688C0 26.9713 2.02871 29 4.53125 29H24.4688C26.9713 29 29 26.9713 29 24.4688V4.53125C29 2.02871 26.9713 0 24.4688 0Z" fill="#7562E0"/>
<path d="M21.75 9.96875C21.2063 10.2406 20.6625 10.3312 20.0281 10.4219C20.6625 10.0594 21.1156 9.51562 21.2969 8.79062C20.7531 9.15312 20.1187 9.33438 19.3937 9.51562C18.85 8.97187 18.0344 8.60938 17.2188 8.60938C15.3156 8.60938 13.8656 10.4219 14.3188 12.2344C11.8719 12.1437 9.69688 10.9656 8.15625 9.15313C7.34063 10.5125 7.79375 12.2344 9.0625 13.1406C8.60938 13.1406 8.15625 12.9594 7.70312 12.7781C7.70312 14.1375 8.7 15.4062 10.0594 15.7687C9.60625 15.8594 9.15313 15.95 8.7 15.8594C9.0625 17.0375 10.15 17.9437 11.5094 17.9437C10.4219 18.7594 8.79063 19.2125 7.25 19.0312C8.60938 19.8469 10.15 20.3906 11.7812 20.3906C17.3094 20.3906 20.3906 15.7687 20.2094 11.5094C20.8437 11.1469 21.3875 10.6031 21.75 9.96875Z" fill="#1A1A29"/>
</svg>
